<svg xmlns="http://www.w3.org/2000/svg" width="102" height="16" viewBox="0 0 102 16"><path d="M6.53 11.48c0 .94-.38 1.57-.94 1.88-.52.29-1.05.43-1.59.43-.53 0-.97-.11-1.31-.33a1.12 1.12 0 0 1-.51-.99c0-.82.59-1.22 1.78-1.22h2.57zM.37 7.14L1.61 8.4c.84-.99 1.77-1.49 2.78-1.49.67 0 1.2.19 1.57.55.38.37.57.9.57 1.59v.65H3.71c-1.13 0-2.03.26-2.7.77A2.5 2.5 0 0 0 0 12.55c0 .86.32 1.55.96 2.09.64.53 1.45.8 2.45.8.87 0 1.59-.18 2.18-.53.36-.17.74-.47.94-.63v.94h2.16V9.17c0-1.34-.38-2.37-1.12-3.09A4.12 4.12 0 0 0 4.59 5C2.78 5 1.37 5.71.37 7.14zm16.77 6.39c-.59 0-1.15-.14-1.7-.43a3.33 3.33 0 0 1-1.3-2.83c0-1.37.53-2.21 1.3-2.83a3.77 3.77 0 0 1 1.7-.44c.88 0 1.61.31 2.19.92.58.61.87 1.39.87 2.34a3.3 3.3 0 0 1-.87 2.35c-.58.62-1.31.92-2.19.92zM15.1 5.68s-.56.35-.96.82V0H12v15.26h2.14v-1.22c.4.48.96.83.96.83v-.01c.71.42 1.51.63 2.41.63 1.41 0 2.58-.5 3.51-1.49a5.29 5.29 0 0 0 1.38-3.74c0-1.49-.46-2.74-1.38-3.73a4.6 4.6 0 0 0-3.51-1.48c-.86 0-1.66.21-2.41.63zm27.51 3.57v5.97h2.14V8.97c0-1.2-.33-2.15-1-2.88A3.49 3.49 0 0 0 41.04 5c-.75 0-1.4.16-1.94.47 0 0-.56.34-.96.78V5.22H36v10h2.14v-5.19c.01-1.25.25-1.98.87-2.55.48-.45.94-.53 1.4-.53.67 0 1.21.21 1.61.62.39.42.59.98.59 1.68m33.41-1.68c.39.42.59.98.59 1.68v5.97h2.14V8.97c0-1.2-.33-2.16-1-2.88A3.49 3.49 0 0 0 75.04 5c-.75 0-1.4.16-1.94.47 0 0-.56.33-.96.78V5.22H70v10h2.14v-5.19c.01-1.25.25-1.98.87-2.55.48-.46.94-.53 1.4-.53.68 0 1.21.21 1.61.62m-23.78 5.96c-.88 0-1.61-.3-2.19-.92a3.3 3.3 0 0 1-.87-2.35c0-.95.29-1.73.87-2.34A2.9 2.9 0 0 1 52.24 7c.55 0 1.12.15 1.69.43v.01c.78.61 1.3 1.45 1.31 2.81v.05a3.36 3.36 0 0 1-1.3 2.81c-.56.28-1.13.42-1.7.42zm3 1.73h2.16V0h-2.16v6.5a4.67 4.67 0 0 0-.94-.81v-.01a4.9 4.9 0 0 0-2.43-.63c-1.4 0-2.56.49-3.48 1.48A5.24 5.24 0 0 0 47 10.26c0 1.49.46 2.73 1.39 3.73.92 1 2.08 1.5 3.48 1.5.91 0 1.71-.21 2.41-.62l.01-.01h.01c.1-.07.58-.39.94-.82zm10.29-3.78c0 .94-.38 1.57-.94 1.88-.52.29-1.05.43-1.59.43-.53 0-.97-.11-1.31-.33a1.12 1.12 0 0 1-.51-.99c0-.82.59-1.22 1.78-1.22h2.57zm2.16 3.74V9.17c0-1.34-.38-2.37-1.12-3.09A4.12 4.12 0 0 0 63.59 5c-1.81 0-3.22.71-4.22 2.14l1.24 1.26c.84-.99 1.77-1.49 2.78-1.49.68 0 1.2.19 1.58.55.37.37.56.9.56 1.59v.65h-2.82c-1.13 0-2.03.26-2.7.77A2.5 2.5 0 0 0 59 12.55c0 .86.32 1.55.96 2.09.64.53 1.45.8 2.45.8.87 0 1.59-.18 2.18-.53.36-.18.74-.47.94-.63v.94zm26.53-5.97c.13-.57.37-1.07.75-1.49a2.73 2.73 0 0 1 2.13-.95c.72 0 1.32.22 1.81.66.49.44.75 1.04.76 1.78zm6.27-2.95A4.5 4.5 0 0 0 97.18 5c-1.45 0-2.68.51-3.68 1.52a5.08 5.08 0 0 0-1.5 3.71 5 5 0 0 0 1.53 3.72 5.3 5.3 0 0 0 3.85 1.49c1.53 0 2.86-.53 4-1.61l-1.02-1.46a4.31 4.31 0 0 1-2.91 1.18c-1 0-1.8-.3-2.41-.91a2.98 2.98 0 0 1-.86-1.72h7.47c.11-.47.16-.92.16-1.34 0-1.32-.44-2.41-1.32-3.28zM32.4 10.57a3.14 3.14 0 0 1-.87 1.97c-.59.61-1.33.92-2.23.92-.89 0-1.63-.31-2.22-.92a3.2 3.2 0 0 1-.88-1.97v-.3c0-.96.3-1.75.89-2.37a2.93 2.93 0 0 1 2.21-.92c.9 0 1.63.31 2.22.92.59.62.88 1.41.88 2.37zm2.18.15c.02-.15.03-.31.03-.47l-.01-.02.01-.02c0-.17-.01-.33-.03-.49V9.7l-.07-.5-.01-.04a5.07 5.07 0 0 0-1.44-2.64 5.13 5.13 0 0 0-3-1.46l-.18-.03-.11-.01-.45-.02h-.04l-.45.02-.1.01-.19.03a5.14 5.14 0 0 0-2.99 1.46 4.9 4.9 0 0 0-1.36 2.28l-.09.36v.04c-.04.16-.06.33-.07.5l-.01.02-.02.49v.04a7.08 7.08 0 0 0 .09.95 4.88 4.88 0 0 0 1.45 2.73 5.06 5.06 0 0 0 3.76 1.51l.41-.02a5.08 5.08 0 0 0 3.36-1.49 4.94 4.94 0 0 0 1.45-2.73l.06-.42v-.06zM84.09 7.9a3.02 3.02 0 0 1 2.23-.93c1.07.01 1.96.52 2.7 1.53l1.51-1.18a4.75 4.75 0 0 0-3.9-2.31L86.32 5h-.02l-.44.02-.15.01-.02.01a5.06 5.06 0 0 0-3.14 1.48 4.9 4.9 0 0 0-1.36 2.28l-.09.36v.04c-.04.16-.06.33-.07.5l-.01.01-.02.5v.04l.02.47.01.06a4.88 4.88 0 0 0 1.51 3.15 5.16 5.16 0 0 0 3.76 1.51 4.93 4.93 0 0 0 4.23-2.32l-1.51-1.16c-.74 1-1.64 1.51-2.7 1.51-.91 0-1.66-.31-2.25-.93a3.2 3.2 0 0 1-.87-1.97v-.3c0-.96.3-1.75.89-2.37"/></svg>