<svg xmlns="http://www.w3.org/2000/svg" width="250" height="123" viewBox="0 0 250 123"><path fill="#fda109" d="M114.59 83.63a59.46 59.46 0 0 1-8.14 13.81 59.48 59.48 0 0 1-9.46 9.44 56.86 56.86 0 0 1-12.19 7.42l-.81.38-2.61 1.05c-.37.14-.74.27-1.12.39l-1.72.6-1.5.44c-.94.28-1.91.56-2.89.76l-.68.16c-.39.1-.78.19-1.17.26l-1.95.36c-.51.1-1.03.17-1.64.25l-.95.12-1.21.15-.89.07-.32.02c-.89.07-1.81.15-2.74.16-2.43.1-4.86.01-7.94-.29l-2.01-.24c-.43-.06-.85-.13-1.27-.21l-.73-.12-.98-.17-1-.22-.45-.1-.27-.06a64.27 64.27 0 0 1-9.09-2.83 67.46 67.46 0 0 1-7.48-3.68 64.81 64.81 0 0 1-6.95-4.75 64.95 64.95 0 0 1-6.25-5.74 63.87 63.87 0 0 1-5.38-6.64 63.55 63.55 0 0 1-4.38-7.4 47.67 47.67 0 0 1-.91-1.95l-.44-.96-.4-1-.29-.73-.5-1.27-.89-2.6-.08-.28L4.56 77l-.16-.55-.04-.12a19.6 19.6 0 0 1-.37-1.41l-.49-2.11-.25-1.35-.32-1.81-.14-1.07-.11-.83c-.06-.43-.12-.87-.15-1.31l-.17-2.18c-.04-.44-.05-.9-.06-1.35l-.02-.78-.03-1.06.01-.68V60l.02-.78c.01-.46.01-.91.04-1.36l.15-2.18c.02-.36.06-.72.1-1.02l.26-2.14.1-.65.07-.39.13-.76.01-.08.22-1.25.47-2.13c.06-.29.13-.6.24-.99l.56-2.07.2-.63.36-1.1.41-1.27.76-2.02c.11-.3.23-.61.38-.94l.85-1.96.28-.58.5-1.03.59-1.18.36-.67c.54-.99 1.1-2.01 1.73-2.99a44.8 44.8 0 0 1 1.63-2.51l.63-.91.74-.98c.57-.77 1.16-1.56 1.8-2.3l.66-.79 2.06-2.28c.29-.31.59-.6.92-.93l1.22-1.2 1.3-1.18.95-.84 1.6-1.3c.42-.36.88-.7 1.34-1.03l.22-.16.62-.46c.32-.24.65-.48.98-.7l.69-.45c.81-.54 1.73-1.15 2.66-1.68l.87-.51c.23-.14.51-.3.82-.46l1.77-.93c.36-.19.73-.36 1.14-.55l.2-.09.37-.17.66-.31c.36-.17.72-.34 1.08-.48l.89-.36.16-.06c.86-.35 1.68-.68 2.54-.96l1.78-.61 2.74-.79.44-.11 2.27-.53a59.57 59.57 0 0 1 14.3-1.26c4.39.16 8.86.85 13.28 2.04 4.02 1.1 7.9 2.6 11.52 4.49a60.15 60.15 0 0 1 9.4 6.04 57.31 57.31 0 0 1 7.18 6.7 57.13 57.13 0 0 1 5.17 6.57 57.17 57.17 0 0 1 6.38 12.39l.29.79 1.55-.59-.27-.77a57.72 57.72 0 0 0-6.53-12.77 57.36 57.36 0 0 0-5.29-6.79A61.14 61.14 0 0 0 76.87 2.19 60.93 60.93 0 0 0 63.17.04a61.53 61.53 0 0 0-14.79 1.25l-2.18.5c-.21.05-.41.09-.64.16l-2.79.79-1.82.62c-.93.29-1.86.66-2.67.99l-1.03.41c-.4.16-.78.33-1.21.53l-.64.3-.43.19-.14.07c-.43.19-.85.38-1.24.6l-1.76.91-.92.51-.85.5c-.96.54-1.88 1.15-2.79 1.74l-.67.44c-.39.25-.77.53-1.1.78l-.17.13-.42.29-.22.16c-.45.33-.97.71-1.44 1.1l-1.61 1.31-.95.83-1.4 1.26-.75.73-.51.51c-.33.32-.66.64-.98.98l-1.42 1.54-1.38 1.6c-.7.8-1.35 1.67-1.93 2.43l-.73.96-.67.98c-.57.83-1.17 1.7-1.68 2.57-.64.99-1.22 2.04-1.8 3.08l-.37.68c-.21.39-.4.79-.6 1.19l-.53 1.08-.32.67-.86 1.96c-.18.41-.32.74-.43 1.05l-.77 2.03-.45 1.35-.36 1.09-.22.71-.57 2.09c-.12.41-.21.77-.28 1.1l-.47 2.14-.24 1.29-.21 1.26-.13.75-.26 2.16c-.07.46-.1.81-.12 1.14l-.16 2.2c-.03.48-.04.97-.05 1.45l-.02.77-.01.39-.01.75.03 1.11.02.65v.12c.01.45.02.96.06 1.46l.16 2.2a34.3 34.3 0 0 0 .26 2.23L.68 70 1 71.87l.27 1.43.49 2.14c.11.53.25 1.04.4 1.54l.18.64.35 1.24.12.4.89 2.63a37.38 37.38 0 0 0 .81 2.08l.43 1.07.46 1 .26.58.06.13a64.04 64.04 0 0 0 5.13 9.02 66.93 66.93 0 0 0 5.58 6.93 67.66 67.66 0 0 0 6.48 6.01 67.75 67.75 0 0 0 7.23 4.97 68.7 68.7 0 0 0 7.78 3.86 66.44 66.44 0 0 0 8.13 2.68c.41.11.82.2 1.23.29l1.9.42 1.75.31c.45.08.91.16 1.38.22l2.07.26a62.45 62.45 0 0 0 8.28.33c.99 0 1.96-.08 2.9-.15l.1-.01 1.12-.08 1.32-.16.26-.03.44-.06.22-.03c.6-.07 1.21-.14 1.8-.26l1.96-.35c.44-.08.88-.18 1.31-.29l.65-.15a39.1 39.1 0 0 0 3.01-.78l1.29-.37.35-.11 1.81-.62c.38-.12.75-.25 1.13-.39l2.7-1.09.87-.39a60.41 60.41 0 0 0 22.7-17.57 61.84 61.84 0 0 0 8.58-14.44l.33-.77-2.6-1.08z"/><path d="M43.2 65.18c0 2.06-.81 3.43-2.04 4.12a7.08 7.08 0 0 1-3.46.93c-1.15 0-2.1-.24-2.84-.73a2.43 2.43 0 0 1-1.11-2.16c0-1.78 1.29-2.67 3.86-2.67h5.59zm-13.4-9.51l2.71 2.76c1.83-2.16 3.84-3.24 6.03-3.24 1.48 0 2.63.39 3.44 1.2.82.8 1.22 1.96 1.22 3.47v1.42h-6.12c-2.46 0-4.42.57-5.88 1.7a5.41 5.41 0 0 0-2.2 4.54c0 1.87.69 3.39 2.09 4.56a7.97 7.97 0 0 0 5.32 1.76c1.9 0 3.48-.39 4.75-1.16.79-.38 1.61-1.02 2.04-1.38v2.05h4.71V60.13c0-2.94-.81-5.2-2.44-6.77-1.63-1.57-3.79-2.36-6.48-2.36-3.94 0-7 1.56-9.19 4.67zm34.39 12.94a7.86 7.86 0 0 1-3.71-.96c-1.69-1.34-2.82-3.18-2.82-6.18 0-3 1.14-4.84 2.84-6.19a8.06 8.06 0 0 1 3.69-.96c1.92 0 3.51.66 4.77 2a7.15 7.15 0 0 1 1.89 5.12c0 2.08-.63 3.79-1.89 5.14a6.25 6.25 0 0 1-4.77 2.03zm-4.44-17.19s-1.21.76-2.09 1.81V39H53v33.39h4.66v-2.67c.88 1.04 2.09 1.8 2.09 1.8v-.02c1.54.92 3.29 1.38 5.24 1.38a9.96 9.96 0 0 0 7.63-3.25 11.59 11.59 0 0 0 3.02-8.19c0-3.27-1.01-5.98-3.02-8.15a10 10 0 0 0-7.63-3.25c-1.87 0-3.62.46-5.24 1.38zm61.63 7.89v13.04h4.66V58.68c0-2.61-.72-4.71-2.17-6.3-1.45-1.59-3.42-2.38-5.91-2.38a8.3 8.3 0 0 0-4.21 1.02s-1.23.74-2.09 1.72v-2.25H107v21.86h4.66V61c.02-2.72.54-4.33 1.88-5.58a4.05 4.05 0 0 1 3.05-1.15c1.48 0 2.65.46 3.51 1.36a5.17 5.17 0 0 1 1.28 3.68m72.72-3.68c.85.9 1.28 2.13 1.28 3.67v13.05h4.66V58.68c0-2.61-.72-4.71-2.17-6.3-1.45-1.59-3.42-2.38-5.91-2.38a8.3 8.3 0 0 0-4.21 1.02s-1.23.74-2.09 1.72v-2.25H181v21.86h4.66V61c.02-2.72.54-4.33 1.88-5.58a4.05 4.05 0 0 1 3.05-1.15c1.48 0 2.65.46 3.51 1.36m-52.69 12.98a6.22 6.22 0 0 1-4.77-2.03 7.23 7.23 0 0 1-1.89-5.14c0-2.08.63-3.79 1.89-5.12a6.23 6.23 0 0 1 4.77-2c1.2 0 2.42.31 3.68.94v.01c1.69 1.34 2.83 3.17 2.84 6.15v.11c-.01 2.97-1.15 4.8-2.83 6.14a8.09 8.09 0 0 1-3.69.94zm6.52 3.78h4.71V39h-4.71v14.23a9.75 9.75 0 0 0-2.04-1.78v-.03a10.57 10.57 0 0 0-5.28-1.38 9.94 9.94 0 0 0-7.59 3.25 11.52 11.52 0 0 0-3.02 8.15 11.6 11.6 0 0 0 3.02 8.17 9.88 9.88 0 0 0 7.59 3.27c1.96 0 3.71-.45 5.24-1.36v.01l.02-.02.02-.01a9.75 9.75 0 0 0 2.04-1.78zm23.27-8.21c0 2.06-.81 3.43-2.04 4.12a7.08 7.08 0 0 1-3.46.93c-1.15 0-2.1-.24-2.84-.73a2.43 2.43 0 0 1-1.11-2.16c0-1.78 1.29-2.67 3.86-2.67h5.59zm4.71 8.17V59.13c0-2.94-.81-5.2-2.44-6.77-1.63-1.57-3.79-2.36-6.48-2.36-3.94 0-7 1.56-9.19 4.67l2.71 2.76c1.83-2.16 3.85-3.25 6.04-3.25 1.47 0 2.62.4 3.43 1.21.82.8 1.22 1.96 1.22 3.47v1.42h-6.12c-2.46 0-4.42.57-5.88 1.7a5.4 5.4 0 0 0-2.2 4.53c0 1.88.7 3.4 2.09 4.57a7.97 7.97 0 0 0 5.32 1.76c1.9 0 3.48-.39 4.75-1.16.79-.39 1.61-1.02 2.04-1.38v2.05zm56.92-13.04a7.02 7.02 0 0 1 1.63-3.28 5.94 5.94 0 0 1 4.64-2.07c1.57 0 2.88.48 3.95 1.45a5.14 5.14 0 0 1 1.64 3.9zm13.66-6.46a9.8 9.8 0 0 0-7.21-2.85c-3.17 0-5.84 1.11-8.02 3.32a11.16 11.16 0 0 0-3.26 8.12c0 3.24 1.11 5.95 3.33 8.13a11.5 11.5 0 0 0 8.39 3.27c3.31 0 6.21-1.17 8.7-3.52l-2.22-3.2a9.43 9.43 0 0 1-6.35 2.58c-2.16 0-3.9-.66-5.24-1.98a6.74 6.74 0 0 1-1.87-3.76H249c.23-1.04.35-2.02.35-2.94a9.7 9.7 0 0 0-2.86-7.17zm-149.2 9.34a6.94 6.94 0 0 1-1.91 4.3 6.5 6.5 0 0 1-4.84 2.02 6.52 6.52 0 0 1-4.84-2.02 7 7 0 0 1-1.91-4.3v-.66c0-2.11.65-3.84 1.93-5.19a6.48 6.48 0 0 1 4.82-2.02c1.94.02 3.55.69 4.82 2.02a7.2 7.2 0 0 1 1.93 5.19zm4.74.32c.03-.34.05-.68.05-1.02v-.09c0-.37-.02-.73-.05-1.09v-.03a19.41 19.41 0 0 0-.17-1.19l-.19-.77a10.86 10.86 0 0 0-2.96-5 11.16 11.16 0 0 0-6.52-3.2l-.4-.06-.23-.01c-.32-.03-.64-.05-.97-.05h-.09c-.34 0-.66.02-.98.05l-.22.01-.41.06c-2.5.33-4.67 1.39-6.52 3.2a10.86 10.86 0 0 0-3.31 6.96l-.01.03c-.03.36-.05.72-.05 1.09v.09c0 .34.02.68.05 1.02l.01.14a10.8 10.8 0 0 0 3.29 6.89 11.1 11.1 0 0 0 7.31 3.26c.29.02.58.04.88.04.3 0 .59-.02.88-.04a11.07 11.07 0 0 0 7.31-3.26 10.76 10.76 0 0 0 3.29-6.89l.01-.14zm109.7-6.17a6.44 6.44 0 0 1 4.85-2.02c2.32.01 4.27 1.12 5.87 3.34l3.28-2.58a10.27 10.27 0 0 0-8.47-5.06l-.67-.02h-.05c-.33 0-.65.02-.96.04l-.33.03-.04.01a11.16 11.16 0 0 0-6.84 3.24 10.86 10.86 0 0 0-3.14 5.77l-.02.09c-.07.36-.12.73-.16 1.1v.03c-.03.36-.05.72-.05 1.09v.09c0 .34.02.68.05 1.02l.01.14a10.8 10.8 0 0 0 3.29 6.89c2.24 2.2 4.97 3.3 8.19 3.3a10.6 10.6 0 0 0 9.19-5.08l-3.28-2.54c-1.6 2.2-3.55 3.3-5.86 3.3a6.5 6.5 0 0 1-4.91-2.03 6.97 6.97 0 0 1-1.89-4.3v-.66a7.2 7.2 0 0 1 1.94-5.19"/></svg>