<svg width="70" height="70" viewBox="0 0 70 70" xmlns="http://www.w3.org/2000/svg" xmlns:xlink="http://www.w3.org/1999/xlink"><title>Page 1</title><defs><circle id="a" cx="35" cy="35" r="35"/><path id="c" d="M40.948 19.503V.005H0v19.498h40.948z"/><path id="e" d="M34.963.07H.028v27.293h34.935V.07z"/></defs><g fill="none" fill-rule="evenodd"><mask id="b" fill="#fff"><use xlink:href="#a"/></mask><use fill="#E1DFDF" xlink:href="#a"/><g mask="url(#b)"><path d="M22.939 42.796c-.236-.931-.713-1.78-.927-2.72-.125-.552-.304-1.092-.459-1.637.038-.391-.054-.776-.053-1.168.008-2.737.072-5.475.432-8.187.37-2.787 1.773-5.002 4.074-6.63a9.403 9.403 0 0 1 2.376-1.197c1.577-.545 2.987-.2 4.255.823.67.54 1.359 1.044 2.128 1.433 1.453.735 2.923.723 4.384.056 1.495-.682 3.058-1.054 4.694-1 1.062.034 2.147.07 3.093.695.718.475 1.224 1.115 1.441 1.94.398 1.514.833 3.021 1.013 4.585.157 1.365.123 2.737.042 4.1-.057.97-.03 1.942-.143 2.911-.084.73.012 1.476-.076 2.213-.287.522-.31 1.126-.514 1.674-.26.703-.51 1.41-.764 2.115-.166.757-.602 1.388-.99 2.032-1.672 2.767-3.818 5.076-6.645 6.695-1.549.888-3.195 1.506-5.01 1.47-1.668-.035-3.198-.6-4.627-1.422-3.051-1.752-5.332-4.26-7.031-7.318-.263-.471-.607-.907-.693-1.463" fill="#F1CDA2"/><g transform="translate(14.5 43)"><mask id="d" fill="#fff"><use xlink:href="#c"/></mask><path d="M9.61 2.64c1.708 2.688 3.86 4.895 6.64 6.424 3.041 1.673 6.009 1.48 8.938-.283C28.446 6.821 30.79 4 32.484.566c.095-.19.142-.412.316-.555 3.113 2.47 5.414 5.57 6.818 9.356 1.175 3.17 1.556 6.448 1.204 9.82-.024.233-.097.337-.326.312-.08-.009-.162-.001-.243-.001-13.194 0-26.388-.001-39.582.004-.336 0-.549.011-.586-.466C-.518 11.36 2.1 5.109 7.859.229L8.12.005c.494.88.95 1.785 1.489 2.634z" fill="#515B0A" mask="url(#d)"/></g><g transform="translate(17.5 11)"><mask id="f" fill="#fff"><use xlink:href="#e"/></mask><path d="M31.281 27.363c-.165-.144-.09-.337-.085-.503.062-2.06.113-4.12.209-6.177.088-1.903-.253-3.742-.746-5.565-.102-.375-.189-.754-.286-1.13-.382-1.477-1.51-2.371-3.155-2.577-2.11-.265-4.11.051-6.044.925-1.49.673-2.999.624-4.46-.137a11.516 11.516 0 0 1-2.036-1.362c-1.307-1.085-2.756-1.361-4.363-.74-3.421 1.325-5.464 3.793-6.104 7.341-.233 1.287-.27 2.612-.335 3.923-.083 1.669-.14 3.34-.088 5.012.004.143.095.332-.119.425-.275-.674-.538-1.355-.83-2.022a3.975 3.975 0 0 0-1.332-1.66 1.13 1.13 0 0 1-.477-.756c-.504-2.665-.87-5.35-.99-8.057-.23-5.153 3.015-9.9 7.928-11.671.404-.146.742-.224.589-.807-.102-.39.191-.697.584-.852a1.75 1.75 0 0 1 .971-.095c1.481.28 2.91-.007 4.334-.353 2.848-.692 5.662-.606 8.439.347 2.36.81 4.105 2.33 5.252 4.512.245.468.557.735 1.093.862 3.328.792 5.73 3.83 5.733 7.21.004 3.025-.265 6.023-.988 8.972a1.129 1.129 0 0 1-.4.641c-1.076.886-1.737 2.014-1.98 3.377-.057.323-.188.618-.314.917" fill="#47191F" mask="url(#f)"/></g><path d="M14.5 58h41v6.545S46.92 70.051 35.397 70C23.874 69.948 14.5 64.545 14.5 64.545V58z" fill="#515B0A"/></g></g></svg>